<svg width="666" height="650" viewBox="0 0 666 650" fill="none" xmlns="http://www.w3.org/2000/svg">
<path d="M575.667 309.713C575.667 167.408 460.231 52.0464 317.834 52.0464C175.436 52.0464 60 167.408 60 309.713C60 452.018 175.436 567.379 317.834 567.379C460.231 567.379 575.667 452.018 575.667 309.713Z" fill="#7B4AE2" fill-opacity="0.2"/>
<g filter="url(#filter0_d_1_24)">
<circle cx="580.143" cy="331.11" r="35.8102" fill="#090E16"/>
</g>
<g clip-path="url(#clip0_1_24)">
<path fill-rule="evenodd" clip-rule="evenodd" d="M595.251 313.205H565.036C563.491 313.205 562.238 314.458 562.238 316.003V346.218C562.238 347.763 563.491 349.015 565.036 349.015H595.251C596.796 349.015 598.049 347.763 598.049 346.218V316.003C598.049 314.458 596.796 313.205 595.251 313.205ZM583.293 345.112V341.248C583.994 341.836 584.755 342.277 585.577 342.57C586.399 342.864 587.229 343.011 588.066 343.011C588.558 343.011 588.987 342.967 589.353 342.878C589.72 342.79 590.026 342.667 590.272 342.51C590.517 342.353 590.701 342.168 590.821 341.955C590.942 341.741 591.003 341.51 591.003 341.26C591.003 340.922 590.906 340.621 590.713 340.355C590.519 340.089 590.256 339.844 589.921 339.618C589.587 339.393 589.19 339.176 588.731 338.967C588.272 338.757 587.776 338.544 587.245 338.327C585.891 337.763 584.882 337.075 584.218 336.262C583.553 335.449 583.221 334.467 583.221 333.316C583.221 332.415 583.402 331.64 583.765 330.992C584.127 330.344 584.621 329.811 585.245 329.392C585.869 328.974 586.592 328.666 587.414 328.469C588.236 328.271 589.106 328.173 590.024 328.173C590.926 328.173 591.726 328.227 592.422 328.336C593.119 328.444 593.762 328.611 594.35 328.837V332.447C594.06 332.246 593.744 332.068 593.401 331.916C593.059 331.763 592.706 331.636 592.344 331.535C591.981 331.434 591.621 331.36 591.262 331.312C590.904 331.264 590.564 331.239 590.241 331.239C589.798 331.239 589.396 331.282 589.033 331.366C588.671 331.451 588.364 331.569 588.115 331.722C587.865 331.875 587.672 332.058 587.535 332.272C587.398 332.485 587.329 332.724 587.329 332.99C587.329 333.28 587.406 333.539 587.559 333.769C587.712 333.998 587.929 334.216 588.211 334.421C588.493 334.626 588.836 334.827 589.238 335.024C589.641 335.222 590.096 335.425 590.604 335.634C591.297 335.924 591.919 336.232 592.471 336.558C593.023 336.884 593.496 337.252 593.891 337.663C594.285 338.073 594.587 338.542 594.797 339.069C595.006 339.596 595.111 340.21 595.111 340.91C595.111 341.876 594.928 342.687 594.561 343.343C594.195 343.999 593.697 344.53 593.069 344.937C592.441 345.343 591.709 345.635 590.876 345.812C590.042 345.989 589.162 346.078 588.236 346.078C587.285 346.078 586.381 345.997 585.523 345.836C584.665 345.675 583.922 345.434 583.293 345.112ZM581.822 331.634H576.854V345.798H572.918V331.634H567.974V328.452H581.822V331.634Z" fill="#7B4AE2" fill-opacity="0.5"/>
</g>
<g filter="url(#filter1_d_1_24)">
<circle cx="95.8102" cy="239.794" r="35.8102" fill="#090E16"/>
</g>
<path d="M109.207 233.496C108.79 233.352 108.357 233.216 107.912 233.088C107.985 232.789 108.052 232.494 108.112 232.204C109.093 227.443 108.451 223.608 106.262 222.345C104.162 221.134 100.728 222.396 97.26 225.415C96.9265 225.705 96.592 226.012 96.2577 226.334C96.035 226.121 95.8126 225.915 95.5908 225.718C91.9562 222.491 88.313 221.131 86.1254 222.397C84.0277 223.612 83.4065 227.217 84.2893 231.729C84.3746 232.165 84.4742 232.61 84.5869 233.063C84.0713 233.209 83.5735 233.365 83.0973 233.531C78.836 235.017 76.1146 237.345 76.1146 239.76C76.1146 242.255 79.036 244.757 83.4745 246.274C83.8247 246.393 84.1882 246.507 84.5627 246.614C84.4411 247.103 84.3354 247.583 84.2466 248.051C83.4048 252.484 84.0622 256.005 86.1543 257.211C88.3153 258.458 91.942 257.177 95.4735 254.09C95.7526 253.846 96.0327 253.587 96.3133 253.316C96.6771 253.666 97.0402 253.997 97.4014 254.308C100.822 257.252 104.201 258.441 106.291 257.231C108.45 255.981 109.151 252.199 108.24 247.598C108.171 247.246 108.09 246.887 107.999 246.522C108.254 246.447 108.504 246.369 108.747 246.288C113.362 244.759 116.364 242.288 116.364 239.76C116.364 237.336 113.554 234.992 109.207 233.496ZM108.207 244.656C107.987 244.729 107.761 244.799 107.531 244.868C107.021 243.255 106.334 241.54 105.492 239.769C106.295 238.039 106.956 236.346 107.451 234.744C107.863 234.863 108.263 234.989 108.648 235.122C112.372 236.404 114.644 238.3 114.644 239.76C114.644 241.316 112.191 243.336 108.207 244.656ZM106.554 247.932C106.956 249.966 107.014 251.806 106.747 253.244C106.507 254.536 106.025 255.398 105.429 255.743C104.161 256.477 101.448 255.522 98.5228 253.005C98.1874 252.716 97.8496 252.408 97.5108 252.082C98.6449 250.842 99.7783 249.4 100.885 247.798C102.83 247.626 104.669 247.344 106.336 246.958C106.418 247.289 106.491 247.614 106.554 247.932ZM89.8364 255.616C88.5971 256.053 87.6101 256.066 87.0135 255.722C85.7439 254.99 85.2161 252.163 85.936 248.371C86.0185 247.937 86.1166 247.491 86.2298 247.035C87.8785 247.4 89.7034 247.662 91.6538 247.82C92.7675 249.387 93.9337 250.828 95.1089 252.089C94.8521 252.337 94.5963 252.573 94.342 252.795C92.7804 254.16 91.2155 255.129 89.8364 255.616ZM84.0305 244.647C82.068 243.976 80.4472 243.104 79.3362 242.153C78.338 241.298 77.8339 240.449 77.8339 239.76C77.8339 238.295 80.019 236.425 83.6632 235.155C84.1054 235.001 84.5683 234.855 85.0487 234.719C85.5523 236.357 86.213 238.07 87.0103 239.802C86.2027 241.56 85.5326 243.3 85.024 244.958C84.6816 244.859 84.3498 244.756 84.0305 244.647ZM85.9767 231.399C85.2203 227.533 85.7227 224.617 86.9868 223.886C88.3333 223.106 91.3109 224.217 94.4491 227.004C94.6497 227.182 94.8511 227.369 95.0531 227.561C93.8836 228.817 92.7281 230.247 91.6243 231.804C89.7314 231.98 87.9194 232.262 86.2534 232.639C86.1487 232.218 86.0559 231.804 85.9767 231.399ZM103.338 235.686C102.94 234.998 102.531 234.327 102.114 233.673C103.399 233.836 104.629 234.051 105.784 234.315C105.438 235.427 105.005 236.589 104.496 237.781C104.131 237.087 103.745 236.389 103.338 235.686ZM96.2583 228.79C97.0514 229.649 97.8456 230.609 98.6268 231.65C97.8396 231.612 97.0427 231.593 96.2391 231.593C95.4432 231.593 94.6521 231.612 93.8697 231.648C94.6517 230.617 95.4528 229.659 96.2583 228.79ZM89.1329 235.698C88.7351 236.388 88.3561 237.083 87.9968 237.779C87.496 236.592 87.0677 235.424 86.7178 234.297C87.8662 234.04 89.0907 233.83 90.3668 233.67C89.9441 234.33 89.5318 235.006 89.1329 235.698V235.698ZM90.4035 245.973C89.0852 245.826 87.8422 245.627 86.6941 245.377C87.0496 244.229 87.4874 243.036 87.9987 241.823C88.359 242.519 88.7395 243.215 89.1397 243.906H89.1398C89.5475 244.61 89.9699 245.3 90.4035 245.973ZM96.3059 250.852C95.491 249.972 94.6781 249 93.8842 247.953C94.6549 247.984 95.4406 247.999 96.2391 247.999C97.0595 247.999 97.8705 247.981 98.6687 247.945C97.885 249.01 97.0936 249.984 96.3059 250.852ZM104.513 241.761C105.051 242.988 105.504 244.174 105.864 245.302C104.697 245.568 103.437 245.783 102.11 245.942C102.527 245.28 102.94 244.597 103.345 243.894C103.755 243.183 104.145 242.471 104.513 241.761ZM101.856 243.035C101.227 244.126 100.581 245.167 99.925 246.15C98.7306 246.236 97.4967 246.28 96.2391 246.28C94.9866 246.28 93.7682 246.241 92.595 246.165C91.9128 245.169 91.2529 244.124 90.6277 243.044H90.6278C90.0043 241.968 89.4305 240.881 88.9105 239.802C89.4303 238.719 90.0027 237.632 90.6226 236.557L90.6225 236.557C91.244 235.479 91.8982 234.44 92.5741 233.45C93.7711 233.36 94.9986 233.312 96.239 233.312H96.2391C97.4852 233.312 98.7142 233.36 99.9109 233.451C100.576 234.434 101.226 235.47 101.85 236.548C102.481 237.638 103.061 238.718 103.585 239.777C103.063 240.855 102.484 241.945 101.856 243.035ZM105.403 223.834C106.751 224.612 107.275 227.746 106.428 231.857C106.374 232.119 106.313 232.386 106.247 232.657C104.577 232.272 102.764 231.985 100.865 231.807C99.7595 230.232 98.6134 228.8 97.4631 227.561C97.7723 227.263 98.0812 226.979 98.3888 226.712C101.36 224.126 104.137 223.105 105.403 223.834ZM96.2391 236.166C98.2241 236.166 99.8332 237.775 99.8332 239.76C99.8332 241.745 98.2241 243.354 96.2391 243.354C94.2542 243.354 92.645 241.745 92.645 239.76C92.645 237.775 94.2542 236.166 96.2391 236.166Z" fill="#7B4AE2" fill-opacity="0.5"/>
<g filter="url(#filter2_d_1_24)">
<circle cx="85.8102" cy="464.81" r="35.8102" fill="#090E16"/>
</g>
<g clip-path="url(#clip1_1_24)">
<path fill-rule="evenodd" clip-rule="evenodd" d="M79.8885 446.905C76.5939 446.905 73.9201 449.579 73.9201 452.873C73.9201 456.168 76.5939 458.842 79.8885 458.842C76.5939 458.842 73.9201 461.516 73.9201 464.81C73.9201 468.105 76.5939 470.779 79.8885 470.779C76.5939 470.779 73.9201 473.452 73.9201 476.747C73.9201 480.041 76.5939 482.715 79.8885 482.715C83.183 482.715 85.8568 480.041 85.8568 476.747L85.8568 464.81C85.8568 468.105 88.5307 470.779 91.8252 470.779C95.1198 470.779 97.7936 468.105 97.7936 464.81C97.7936 461.516 95.1198 458.842 91.8252 458.842C95.1198 458.842 97.7936 456.168 97.7936 452.873C97.7936 449.579 95.1198 446.905 91.8252 446.905H79.8885ZM91.8252 458.842H85.8568L85.8568 464.81C85.8568 461.516 88.5307 458.842 91.8252 458.842Z" fill="#7B4AE2" fill-opacity="0.5"/>
</g>
<g filter="url(#filter3_f_1_24)">
<circle cx="319.624" cy="305.148" r="255.148" fill="#7B4AE2" fill-opacity="0.2"/>
</g>
<path d="M480 322.5C468.5 486.242 474.5 595.742 327 551L327 313L327 94C431.382 94 506.5 144.5 480 322.5Z" fill="#564026"/>
<path d="M174.356 322.5C185.856 486.242 179.856 595.742 327.356 551L327.356 313L327.356 94C222.974 94 147.856 144.5 174.356 322.5Z" fill="#564026"/>
<g filter="url(#filter4_i_1_24)">
<path fill-rule="evenodd" clip-rule="evenodd" d="M272.636 404.465C309.391 424.056 350.608 421.88 382.901 404.463V447.383L383.266 447.373V472.573H272.636V404.465Z" fill="#AF754C"/>
<path fill-rule="evenodd" clip-rule="evenodd" d="M272.635 440.226C309.39 459.819 350.608 457.642 382.901 440.226V467.595L407.734 466.977L408.042 466.988C408.042 532.959 250.326 542.834 250.326 466.889L250.942 466.861L272.635 466.972V440.226Z" fill="#E9BEA6"/>
<path fill-rule="evenodd" clip-rule="evenodd" d="M219.923 168.83C298.887 112.865 399.91 132.767 434.042 169.671C443.91 196.102 444.607 221.597 441.704 248.962C448.37 243.638 456.298 244.857 462.544 249.815C465.074 272.523 462.875 317.444 432.5 319.393C427.048 354.344 423.165 370.366 411.5 387.5C400.619 406.085 357.5 429 330 429C300.5 429 258.292 405.073 246 387.5C233.708 369.927 232.792 353.638 227 319.393C196.895 318.237 191.528 273.312 193.409 251.511C200.632 245.395 208.88 248.473 213.999 251.209L219.923 168.83Z" fill="#E9BEA6"/>
<path fill-rule="evenodd" clip-rule="evenodd" d="M371.629 236.712C366.188 238.156 361 238.497 361 241.95C361 244.596 361 247.95 363.913 250.059C373.241 242.695 393.05 242.695 403.184 249.944C405.141 251.21 407.215 252.36 407.906 252.36C410.324 252.36 402.5 241.95 402.5 241.95C402.5 241.95 401 238.95 392 236.712C387.5 235.593 374.5 235.95 371.629 236.712Z" fill="#281A0F"/>
<path fill-rule="evenodd" clip-rule="evenodd" d="M286.741 236.712C292.181 238.156 297.37 238.497 297.37 241.95C297.37 244.596 297.37 247.95 294.457 250.059C285.129 242.695 265.32 242.695 255.186 249.944C253.228 251.21 251.155 252.36 250.464 252.36C248.046 252.36 255.87 241.95 255.87 241.95C255.87 241.95 257.37 238.95 266.37 236.712C270.87 235.593 283.87 235.95 286.741 236.712Z" fill="#281A0F"/>
<path fill-rule="evenodd" clip-rule="evenodd" d="M315.315 319.813C316.009 323.357 318.025 326.159 321.555 328.385C324.391 330.198 325.84 330.61 330 330.61C334.16 330.61 335.609 330.198 338.445 328.385C341.975 326.159 343.991 323.357 344.685 319.813L345 318H330H315L315.315 319.813Z" fill="#AF754C"/>
<path fill-rule="evenodd" clip-rule="evenodd" d="M294 357C295.654 364.417 303.67 372.012 313.595 375.586C320.847 378.267 334.207 378.803 341.842 376.748C353.294 373.621 363.219 365.221 365 357H294Z" fill="white"/>
<path d="M401.65 257C399 261 388 266 388 266C388 266 381 267.5 381 264C381 262 385.35 261 388 261C390.65 261 394.5 259.5 401.65 257Z" fill="#281A0F"/>
<ellipse cx="376.5" cy="268.5" rx="11.5" ry="16.5" fill="#4E6C78"/>
<ellipse cx="380" cy="260.5" rx="4" ry="5.5" fill="white"/>
<path d="M257 257C259.65 261 270.65 266 270.65 266C270.65 266 277.65 267.5 277.65 264C277.65 262 273.299 261 270.65 261C268 261 264.15 259.5 257 257Z" fill="#281A0F"/>
<ellipse cx="11.5" cy="16.5" rx="11.5" ry="16.5" transform="matrix(-1 0 0 1 293.65 252)" fill="#4E6C78"/>
<ellipse cx="286" cy="261.5" rx="4" ry="5.5" fill="white"/>
<path d="M369.721 578.002L377.116 571.994C378.83 570.602 381.349 570.861 382.742 572.574C384.136 574.286 383.876 576.802 382.162 578.195L378.583 581.102L404.568 602.978C406.282 604.37 406.541 606.887 405.148 608.599C404.358 609.57 403.205 610.074 402.043 610.074C401.156 610.074 400.263 609.781 399.522 609.179L369.721 584.202C368.787 583.443 368.245 582.305 368.245 581.102C368.245 579.899 368.787 578.761 369.721 578.002Z" fill="#7B4AE2"/>
<path d="M402.56 541.293C404.683 541.31 406.391 543.043 406.374 545.165L406.044 606.263C406.027 608.384 404.291 610.091 402.168 610.074C401.63 610.07 401.12 609.955 400.656 609.752C399.291 609.154 398.341 607.786 398.354 606.201L398.685 545.104C398.702 542.982 400.437 541.276 402.56 541.293Z" fill="#7B4AE2"/>
<path d="M419.438 583.321L422.169 581.102L412.441 573.198C410.727 571.806 410.468 569.29 411.861 567.577C413.254 565.865 415.773 565.606 417.487 566.998L431.03 578.002C431.965 578.76 432.507 579.899 432.507 581.102C432.507 582.305 431.965 583.443 431.03 584.202L424.483 589.522C423.742 590.123 422.85 590.417 421.963 590.417C420.801 590.417 419.648 589.913 418.858 588.942C417.465 587.23 417.724 584.713 419.438 583.321Z" fill="#C83267"/>
<path fill-rule="evenodd" clip-rule="evenodd" d="M249.624 466.93C215.652 470.236 184.789 482.889 159.107 503.977C137.008 522.046 130.843 536.407 114.663 556.86C147.629 591.033 191.958 619.987 240.298 635.98C272.543 646.58 294.54 650 329.088 650C363.639 650 385.634 646.58 417.881 635.98C466.649 620.396 507.728 594.859 544.759 558.205C519.396 525.495 508.957 504.057 468.091 483.914C450.931 475.365 430.778 469.21 415.346 467.614L408.078 466.959L407.733 466.952L406.939 472.402C403.485 498.392 370.895 517.542 330.241 517.542C289.589 517.542 257.573 498.619 253.426 472.288C252.621 467.044 252.274 466.588 249.626 466.93H249.624Z" fill="#090E16"/>
<path d="M396.489 560.392L400.339 557.264C401.231 556.539 402.542 556.675 403.267 557.566C403.993 558.457 403.858 559.768 402.965 560.492L401.102 562.006L414.628 573.396C415.521 574.12 415.656 575.431 414.93 576.322C414.519 576.828 413.919 577.09 413.314 577.09C412.853 577.09 412.388 576.938 412.002 576.624L396.489 563.62C396.003 563.225 395.721 562.632 395.721 562.006C395.721 561.38 396.003 560.787 396.489 560.392Z" fill="white"/>
<path d="M413.584 541.28C414.689 541.289 415.578 542.191 415.569 543.296L415.397 575.106C415.388 576.211 414.485 577.099 413.38 577.09C413.099 577.088 412.834 577.028 412.592 576.923C411.882 576.611 411.387 575.899 411.394 575.074L411.566 543.264C411.575 542.16 412.478 541.271 413.584 541.28Z" fill="white"/>
<path d="M422.369 563.161L423.791 562.006L418.727 557.891C417.835 557.167 417.7 555.856 418.425 554.965C419.15 554.073 420.461 553.938 421.353 554.663L428.404 560.392C428.89 560.787 429.172 561.38 429.172 562.006C429.172 562.632 428.89 563.225 428.404 563.62L424.996 566.39C424.609 566.703 424.145 566.856 423.684 566.856C423.078 566.856 422.478 566.594 422.067 566.088C421.342 565.196 421.477 563.886 422.369 563.161Z" fill="#7B4AE2"/>
</g>
<path d="M300.782 172.992C267.605 205.363 227.641 217.784 213.416 251.5C204.016 227.381 193.29 186.925 213.416 146.463C233.543 106 300.782 100 333.959 100C364.497 100 333.959 140.622 300.782 172.992Z" fill="#564026"/>
<path d="M354.761 172.992C387.937 205.363 427.901 217.784 442.126 251.5C451.526 227.381 462.252 186.925 442.126 146.463C422 106 354.761 100 321.584 100C291.046 100 321.584 140.622 354.761 172.992Z" fill="#564026"/>
<defs>
<filter id="filter0_d_1_24" x="494.333" y="249.3" width="171.62" height="171.62" filterUnits="userSpaceOnUse" color-interpolation-filters="sRGB">
<feFlood flood-opacity="0" result="BackgroundImageFix"/>
<feColorMatrix in="SourceAlpha" type="matrix" values="0 0 0 0 0 0 0 0 0 0 0 0 0 0 0 0 0 0 127 0" result="hardAlpha"/>
<feOffset dy="4"/>
<feGaussianBlur stdDeviation="25"/>
<feComposite in2="hardAlpha" operator="out"/>
<feColorMatrix type="matrix" values="0 0 0 0 0 0 0 0 0 0 0 0 0 0 0 0 0 0 0.5 0"/>
<feBlend mode="normal" in2="BackgroundImageFix" result="effect1_dropShadow_1_24"/>
<feBlend mode="normal" in="SourceGraphic" in2="effect1_dropShadow_1_24" result="shape"/>
</filter>
<filter id="filter1_d_1_24" x="10" y="157.984" width="171.62" height="171.62" filterUnits="userSpaceOnUse" color-interpolation-filters="sRGB">
<feFlood flood-opacity="0" result="BackgroundImageFix"/>
<feColorMatrix in="SourceAlpha" type="matrix" values="0 0 0 0 0 0 0 0 0 0 0 0 0 0 0 0 0 0 127 0" result="hardAlpha"/>
<feOffset dy="4"/>
<feGaussianBlur stdDeviation="25"/>
<feComposite in2="hardAlpha" operator="out"/>
<feColorMatrix type="matrix" values="0 0 0 0 0 0 0 0 0 0 0 0 0 0 0 0 0 0 0.5 0"/>
<feBlend mode="normal" in2="BackgroundImageFix" result="effect1_dropShadow_1_24"/>
<feBlend mode="normal" in="SourceGraphic" in2="effect1_dropShadow_1_24" result="shape"/>
</filter>
<filter id="filter2_d_1_24" x="0" y="383" width="171.62" height="171.62" filterUnits="userSpaceOnUse" color-interpolation-filters="sRGB">
<feFlood flood-opacity="0" result="BackgroundImageFix"/>
<feColorMatrix in="SourceAlpha" type="matrix" values="0 0 0 0 0 0 0 0 0 0 0 0 0 0 0 0 0 0 127 0" result="hardAlpha"/>
<feOffset dy="4"/>
<feGaussianBlur stdDeviation="25"/>
<feComposite in2="hardAlpha" operator="out"/>
<feColorMatrix type="matrix" values="0 0 0 0 0 0 0 0 0 0 0 0 0 0 0 0 0 0 0.5 0"/>
<feBlend mode="normal" in2="BackgroundImageFix" result="effect1_dropShadow_1_24"/>
<feBlend mode="normal" in="SourceGraphic" in2="effect1_dropShadow_1_24" result="shape"/>
</filter>
<filter id="filter3_f_1_24" x="14.4763" y="0" width="610.296" height="610.296" filterUnits="userSpaceOnUse" color-interpolation-filters="sRGB">
<feFlood flood-opacity="0" result="BackgroundImageFix"/>
<feBlend mode="normal" in="SourceGraphic" in2="BackgroundImageFix" result="shape"/>
<feGaussianBlur stdDeviation="25" result="effect1_foregroundBlur_1_24"/>
</filter>
<filter id="filter4_i_1_24" x="114.663" y="134" width="430.095" height="520" filterUnits="userSpaceOnUse" color-interpolation-filters="sRGB">
<feFlood flood-opacity="0" result="BackgroundImageFix"/>
<feBlend mode="normal" in="SourceGraphic" in2="BackgroundImageFix" result="shape"/>
<feColorMatrix in="SourceAlpha" type="matrix" values="0 0 0 0 0 0 0 0 0 0 0 0 0 0 0 0 0 0 127 0" result="hardAlpha"/>
<feOffset dy="4"/>
<feGaussianBlur stdDeviation="2"/>
<feComposite in2="hardAlpha" operator="arithmetic" k2="-1" k3="1"/>
<feColorMatrix type="matrix" values="0 0 0 0 0 0 0 0 0 0 0 0 0 0 0 0 0 0 0.25 0"/>
<feBlend mode="normal" in2="shape" result="effect1_innerShadow_1_24"/>
</filter>
<clipPath id="clip0_1_24">
<rect width="35.8102" height="35.8102" fill="white" transform="translate(562.238 313.205)"/>
</clipPath>
<clipPath id="clip1_1_24">
<rect width="35.8102" height="35.8102" fill="white" transform="translate(67.9051 446.905)"/>
</clipPath>
</defs>
</svg>
